# xmcd CD database file
#
# Track frame offsets:
#	150
#	28186
#	44078
#	69364
#	92524
#	111171
#	136082
#
# Disc length: 2106 seconds
#
# Revision: 0
# Processed by: cddbd v1.5.2PL0 Copyright (c) Steve Scherf et al.
# Submitted via: CDex 1.70beta2
#
DISCID=5a083807
DTITLE=Barry Charles and TIm Finnigan -  Northern Shores
DYEAR=2002
DGENRE=Blues
TTITLE0=Trick of the Light
TTITLE1=You're not the only one singing the blues
TTITLE2=Night train
TTITLE3=Northern Shores
TTITLE4=Call me with love
TTITLE5=Legacy of Shame
TTITLE6=Ode to Tony Joe
EXTD=YEAR: 2002
EXTT0=
EXTT1=
EXTT2=
EXTT3=
EXTT4=
EXTT5=
EXTT6=
PLAYORDER=
